<svg id="Слой_1" data-name="Слой 1" xmlns="http://www.w3.org/2000/svg" viewBox="0 0 173.83 207.75"><defs><style>.cls-1{fill:#0060a2;}</style></defs><path class="cls-1" d="M84.71,38.7A8.33,8.33,0,1,0,73.3,35.85,8.33,8.33,0,0,0,84.71,38.7Z"/><path class="cls-1" d="M61.91,42.18a5.89,5.89,0,1,0-8.07-2A5.9,5.9,0,0,0,61.91,42.18Z"/><path class="cls-1" d="M116.17,38.59A12,12,0,1,0,99.72,34.5,12,12,0,0,0,116.17,38.59Z"/><path class="cls-1" d="M60.93,114.71l5.71-7.53C45,98.05,26.14,87.64,23.13,75.93c-1.32-5.14.56-10.54,5.74-16.52,4.25-4.91,10.44-9.24,18.37-13l-3.63-8.37C35,42.11,27.45,47.14,22,53.43c-7.2,8.3-9.79,16.63-7.69,24.77C18.17,93.23,37.31,104.63,60.93,114.71Z"/><path class="cls-1" d="M128,207.24,163.09,0,0,207.53H.19A85.72,85.72,0,0,1,128,207.24Zm-31.13-58A22.2,22.2,0,1,1,125.73,137,22.23,22.23,0,0,1,96.87,149.28Z"/><path class="cls-1" d="M166.4,155.42c-4.79-5.53-11.38-9.95-19-13.52l-1.4,8.3c6.07,3.08,10.89,6.59,14.29,10.51,4.58,5.29,6.25,10.07,5.08,14.62-2.14,8.3-13.26,15.86-27.47,22.7l-1.65,9.72c18.88-8.46,33.75-18,36.93-30.41C175.06,170.13,172.76,162.76,166.4,155.42Z"/></svg>