<svg id="Слой_1" data-name="Слой 1" xmlns="http://www.w3.org/2000/svg" xmlns:xlink="http://www.w3.org/1999/xlink" viewBox="0 0 486 554"><defs><style>.cls-1{fill:url(#Безымянный_градиент_6);}.cls-2{fill:url(#Безымянный_градиент_2);}.cls-3{fill:url(#Безымянный_градиент_3);}.cls-4,.cls-5,.cls-7,.cls-9{fill:none;}.cls-4,.cls-5{stroke-width:3.5px;}.cls-4{stroke:url(#Безымянный_градиент_4);}.cls-5{stroke-opacity:0.3;stroke:url(#Безымянный_градиент_5);}.cls-6,.cls-8{fill:#0060a4;}.cls-6{fill-opacity:0.7;}.cls-7{stroke:#0061a4;stroke-linecap:round;stroke-linejoin:round;stroke-opacity:0.7;stroke-width:3px;}.cls-9{stroke:#0060a4;stroke-width:1.5px;}</style><linearGradient id="Безымянный_градиент_6" x1="541.5" y1="163.03" x2="326.5" y2="405.53" gradientTransform="matrix(1, 0, 0, -1, -62.86, 723.55)" gradientUnits="userSpaceOnUse"><stop offset="0.05" stop-color="#002945"/><stop offset="0.18" stop-color="#0061a4"/><stop offset="0.5" stop-color="#0061a4" stop-opacity="0.7"/><stop offset="1" stop-color="#0061a4" stop-opacity="0"/></linearGradient><linearGradient id="Безымянный_градиент_2" x1="223.81" y1="536.47" x2="77.31" y2="735.47" gradientTransform="matrix(1, 0, 0, -1, -62.86, 723.55)" gradientUnits="userSpaceOnUse"><stop offset="0.08" stop-color="#0060a4"/><stop offset="0.43" stop-color="#0060a4" stop-opacity="0.7"/><stop offset="1" stop-color="#fff"/></linearGradient><linearGradient id="Безымянный_градиент_3" x1="477.24" y1="325.32" x2="156.18" y2="672.58" gradientTransform="matrix(1, 0, 0, -1, -8.36, 867.05)" gradientUnits="userSpaceOnUse"><stop offset="0" stop-color="#fff" stop-opacity="0"/><stop offset="1" stop-color="#fff" stop-opacity="0.36"/></linearGradient><radialGradient id="Безымянный_градиент_4" cx="0.96" cy="842.17" r="1" gradientTransform="matrix(-456.11, 140.47, 222.76, 723.28, -186630.41, -608962.68)" gradientUnits="userSpaceOnUse"><stop offset="0" stop-color="#003257" stop-opacity="0.93"/><stop offset="0.9" stop-color="#0060a4"/></radialGradient><radialGradient id="Безымянный_градиент_5" cx="1.43" cy="842" r="1" gradientTransform="matrix(139.77, 275.47, 436.83, -221.65, -367778.11, 186465.5)" gradientUnits="userSpaceOnUse"><stop offset="0" stop-color="#fff" stop-opacity="0"/><stop offset="1" stop-color="#fff"/></radialGradient></defs><circle class="cls-1" cx="370" cy="438" r="116"/><circle class="cls-2" cx="88" cy="88" r="88"/><path class="cls-3" d="M143.94,208.85a14.85,14.85,0,0,1,18.2-10.5L519.8,294.18a14.86,14.86,0,0,1,10.51,18.2L472.72,527.32a14.87,14.87,0,0,1-18.2,10.51L96.85,442a14.85,14.85,0,0,1-10.5-18.19Z" transform="translate(-54.5 -143.5)"/><path class="cls-4" d="M145.63,209.31A13.1,13.1,0,0,1,161.69,200l357.66,95.83a13.12,13.12,0,0,1,9.27,16.06L471,526.87A13.12,13.12,0,0,1,455,536.14L97.31,440.3A13.09,13.09,0,0,1,88,424.25Z" transform="translate(-54.5 -143.5)"/><path class="cls-5" d="M145.63,209.31A13.1,13.1,0,0,1,161.69,200l357.66,95.83a13.12,13.12,0,0,1,9.27,16.06L471,526.87A13.12,13.12,0,0,1,455,536.14L97.31,440.3A13.09,13.09,0,0,1,88,424.25Z" transform="translate(-54.5 -143.5)"/><path class="cls-6" d="M140.61,287.88a1.74,1.74,0,0,1,.8,2.8,27.12,27.12,0,0,0-6.54,24.09,1.66,1.66,0,0,1-3.23.78A29.71,29.71,0,0,1,139,288.21,2,2,0,0,1,140.61,287.88Zm2,5.89a25.8,25.8,0,0,0-4.32,9,26.09,26.09,0,0,0-.77,10,1.64,1.64,0,0,0,3.25-.51,23.82,23.82,0,0,1,.75-8.58,24.15,24.15,0,0,1,3.64-7.82,1.64,1.64,0,0,0-.24-2.3,1.78,1.78,0,0,0-.6-.33A1.51,1.51,0,0,0,142.66,293.77Zm7.05,4.3a1.75,1.75,0,0,0-1.35.5,14.78,14.78,0,0,0-3.57,5.94,14.19,14.19,0,0,0,.13,6.92,1.64,1.64,0,1,0,3.17-.87,11.66,11.66,0,0,1-.08-5.19,8.81,8.81,0,0,1,1.36-2.82l8.06,11.81a1.66,1.66,0,0,0,1.36.71,1.69,1.69,0,0,0,1.41-.75,19,19,0,0,0,2.31-5.06,21.06,21.06,0,0,0,.56-5.63,1.69,1.69,0,0,0-3.36.31,15.46,15.46,0,0,1-.42,4.45,13.16,13.16,0,0,1-.66,1.81l-7.74-11.38a1.72,1.72,0,0,0-.94-.68Z" transform="translate(-54.5 -143.5)"/><path class="cls-7" d="M389.32,315.27a6.33,6.33,0,1,0-7.85-4.33A6.31,6.31,0,0,0,389.32,315.27Z" transform="translate(-54.5 -143.5)"/><path class="cls-7" d="M371.85,313.33a4.48,4.48,0,1,0-5.55-3.07A4.48,4.48,0,0,0,371.85,313.33Z" transform="translate(-54.5 -143.5)"/><path class="cls-7" d="M412.49,321.4a9.12,9.12,0,1,0-11.3-6.25A9.11,9.11,0,0,0,412.49,321.4Z" transform="translate(-54.5 -143.5)"/><path class="cls-7" d="M356.87,366.32l5.69-4.39c-14.17-11-26-22.32-25.89-31.5,0-4,2.48-7.62,7.47-11,4.1-2.77,9.5-4.72,16.07-5.89l-1-6.85c-7.16,1.25-13.67,3.46-18.92,7-6.92,4.67-10.47,10.28-10.53,16.65C329.62,342.14,341.47,354.27,356.87,366.32Z" transform="translate(-54.5 -143.5)"/><path class="cls-7" d="M388.06,447.4l66.56-145-160.84,120,.15,0a65.48,65.48,0,0,1,94.13,25Zm-11.52-48.64a16.86,16.86,0,1,1,23.66-3.33A16.84,16.84,0,0,1,376.54,398.76Z" transform="translate(-54.5 -143.5)"/><path class="cls-7" d="M426.52,417a43.1,43.1,0,0,0-11.31-13.65l-2.67,5.81A35.26,35.26,0,0,1,421,419.66c2.33,4.78,2.62,8.62.86,11.72-3.2,5.67-12.87,9-24.68,11.23l-3.12,6.8c15.56-2.48,28.39-6.57,33.16-15C430,429.47,429.76,423.62,426.52,417Z" transform="translate(-54.5 -143.5)"/><path class="cls-8" d="M139.5,381.63l-4,5-.59-.16-1-6.36.65.18.86,5.52,3.51-4.35Z" transform="translate(-54.5 -143.5)"/><path class="cls-8" d="M142.6,386.93l-3.16-.85-1.09,1.34-.63-.17,4.12-5,.6.16,1.07,6.38-.63-.17Zm-.08-.55L142,383l-2.18,2.69Z" transform="translate(-54.5 -143.5)"/><path class="cls-8" d="M146,383.37l.6.16-1.39,5.16,3.19.86-.14.52-3.79-1Z" transform="translate(-54.5 -143.5)"/><path class="cls-8" d="M150.76,384.65l.6.16-1.52,5.68-.6-.16Z" transform="translate(-54.5 -143.5)"/><path class="cls-8" d="M153.21,385.3l2.32.62a3.51,3.51,0,0,1,1.49.8,2.68,2.68,0,0,1,.81,1.29,3,3,0,0,1,0,1.57A2.94,2.94,0,0,1,157,391a2.77,2.77,0,0,1-1.35.72,3.46,3.46,0,0,1-1.68-.07l-2.32-.62Zm.9,5.78a2.76,2.76,0,0,0,1.39.06,2.2,2.2,0,0,0,1.09-.59,2.38,2.38,0,0,0,.63-1.12,2.46,2.46,0,0,0,0-1.29,2.22,2.22,0,0,0-.65-1.05,2.85,2.85,0,0,0-1.23-.65l-1.68-.45-1.25,4.64Z" transform="translate(-54.5 -143.5)"/><path class="cls-8" d="M163,388.49l-2-.54.14-.52,4.6,1.23-.14.52-2-.53-1.38,5.17-.61-.17Z" transform="translate(-54.5 -143.5)"/><path class="cls-8" d="M171.47,390.2,170,395.88l-.6-.16.71-2.62-3.56-1-.7,2.62-.61-.16,1.53-5.69.6.16-.68,2.54,3.56.95.68-2.53Z" transform="translate(-54.5 -143.5)"/><path class="cls-8" d="M175.69,397.42l-.81-2.18a3.73,3.73,0,0,1-.46-.09l-1.53-.41-.49,1.8-.6-.16,1.53-5.69,2.13.57a2.68,2.68,0,0,1,1.56,1,1.85,1.85,0,0,1,.24,1.6,1.9,1.9,0,0,1-.65,1,1.84,1.84,0,0,1-1.13.4l.87,2.33Zm-1.15-2.79a2,2,0,0,0,1.39,0,1.49,1.49,0,0,0,.56-2.1,2,2,0,0,0-1.19-.72l-1.51-.41-.76,2.86Z" transform="translate(-54.5 -143.5)"/><path class="cls-8" d="M180,398.62a2.41,2.41,0,0,1-1.55-1.1,2.6,2.6,0,0,1-.12-2l.87-3.26.6.16-.87,3.24a2.31,2.31,0,0,0,.05,1.6,1.76,1.76,0,0,0,1.17.83,1.73,1.73,0,0,0,1.43-.14,2.22,2.22,0,0,0,.84-1.36l.87-3.23.58.16-.87,3.25a2.65,2.65,0,0,1-1.11,1.68A2.36,2.36,0,0,1,180,398.62Z" transform="translate(-54.5 -143.5)"/><path class="cls-8" d="M146.51,370.46l3.38-12.62a2.14,2.14,0,0,1,2.58-1.49l6.58,1.76a2,2,0,0,1,1.25,1,2,2,0,0,1,.22,1.59l-3.39,12.63a2.12,2.12,0,0,1-2.58,1.49L148,373a2.07,2.07,0,0,1-1.49-2.58Zm8.56,2.22,3.33-12.45L152,358.5,148.64,371Z" transform="translate(-54.5 -143.5)"/><path class="cls-8" d="M163.11,374.83l3.24.87,3.34-12.45-3.19-.86a1.05,1.05,0,0,1-.68-.5,1.09,1.09,0,0,1-.1-.83,1,1,0,0,1,.5-.66,1.08,1.08,0,0,1,.84-.12l5.3,1.42-3.9,14.56,2.11.57,1.18-4.4a1.1,1.1,0,0,1,.5-.66,1.07,1.07,0,0,1,.84-.11,1.12,1.12,0,0,1,.77,1.34l-1.46,5.45a1.06,1.06,0,0,1-.52.67,1,1,0,0,1-.82.1l-8.52-2.28a1.09,1.09,0,0,1-.67-.52,1.12,1.12,0,0,1-.09-.84,1,1,0,0,1,.5-.65A1,1,0,0,1,163.11,374.83Z" transform="translate(-54.5 -143.5)"/><path class="cls-8" d="M186.69,383.41l-9.6-2.57,1.95-7.29a2.19,2.19,0,0,1,1-1.34,2.13,2.13,0,0,1,1.67-.23l6.4,1.72,1.38-5.14-7.54-2a1.09,1.09,0,1,1,.57-2.11l7.53,2a2.11,2.11,0,0,1,1.34,1,2.09,2.09,0,0,1,.24,1.65l-1.38,5.14a2.2,2.2,0,0,1-2.71,1.56l-6.41-1.71-1.38,5.17,7.48,2a1.06,1.06,0,0,1,.66.51,1,1,0,0,1,.12.83,1.09,1.09,0,0,1-.52.67A1.07,1.07,0,0,1,186.69,383.41Z" transform="translate(-54.5 -143.5)"/><path class="cls-8" d="M207.2,373.3l-1.06,4a3.09,3.09,0,0,1-1.46,2,3.21,3.21,0,0,1,.31,2.38l-1.1,4.12a2.2,2.2,0,0,1-2.7,1.53l-7.47-2a1.06,1.06,0,0,1-.67-.5,1.09,1.09,0,0,1-.1-.83,1,1,0,0,1,.5-.66,1.08,1.08,0,0,1,.84-.12l7.44,2,1.1-4.12a1.07,1.07,0,0,0-.11-.84,1,1,0,0,0-.65-.53l-4.25-1.13a1.05,1.05,0,0,1-.67-.51,1.11,1.11,0,0,1,.4-1.49,1,1,0,0,1,.83-.11l4.27,1.14a1.08,1.08,0,0,0,1.34-.77l1.1-4.09-7.54-2a1,1,0,0,1-.67-.5,1,1,0,0,1-.1-.83,1,1,0,0,1,.5-.66,1.07,1.07,0,0,1,.84-.12l7.53,2a2.09,2.09,0,0,1,1.33,1A2.12,2.12,0,0,1,207.2,373.3Z" transform="translate(-54.5 -143.5)"/><path class="cls-8" d="M231,394.14l1.18-4.4-6.36-1.7,2.73-10.16a1.05,1.05,0,0,1,.51-.67,1.09,1.09,0,0,1,.86-.12,1,1,0,0,1,.65.52,1.07,1.07,0,0,1,.11.84l-2.15,8,4.22,1.13,1.66-6.18a1.12,1.12,0,0,1,.5-.68,1,1,0,0,1,.84-.12,1,1,0,0,1,.66.52,1.08,1.08,0,0,1,.11.84l-1.66,6.18a1,1,0,0,1,.66.51,1.08,1.08,0,0,1-.4,1.5,1,1,0,0,1-.82.1l-1.19,4.43a1,1,0,0,1-.51.66,1.08,1.08,0,0,1-.82.11,1.07,1.07,0,0,1-.78-1.34Z" transform="translate(-54.5 -143.5)"/><path class="cls-8" d="M243.75,396.44l4.88,1.31,1.39-5.18-6.38-1.71,2.51-9.38,7.44,2a1,1,0,0,1,.66.51,1.06,1.06,0,0,1,.11.83,1.07,1.07,0,0,1-1.33.77l-5.31-1.42-1.38,5.16,4.25,1.14a2.07,2.07,0,0,1,1.31,1,2.09,2.09,0,0,1,.23,1.65l-1.39,5.17a2.1,2.1,0,0,1-1,1.33,2.12,2.12,0,0,1-1.65.22l-4.89-1.31a3.87,3.87,0,0,1-1.31-.69l-1.41-1.09a1,1,0,0,1-.38-1.18,1,1,0,0,1,.49-.66,1,1,0,0,1,.79-.13,2,2,0,0,1,.68.38l1.23,1A1.09,1.09,0,0,0,243.75,396.44Z" transform="translate(-54.5 -143.5)"/><path class="cls-8" d="M260.43,385.3l1.05.28a1.11,1.11,0,0,1,.77,1.34,1.08,1.08,0,0,1-.51.67,1,1,0,0,1-.83.1l-1.86,7,7.43,2a1,1,0,0,1,.66.52,1.08,1.08,0,0,1,.11.84l-1.46,5.45a1.11,1.11,0,0,1-1.36.77L256,402a1.08,1.08,0,0,1-.68-.52,1,1,0,0,1-.12-.82l3.9-14.56a1,1,0,0,1,.51-.66A1.12,1.12,0,0,1,260.43,385.3Zm-2,11.49-.9,3.35,6.39,1.71.89-3.35Z" transform="translate(-54.5 -143.5)"/><path class="cls-8" d="M274.32,391.15l.24-.91a1,1,0,0,1,.5-.66,1.07,1.07,0,0,1,.84-.11l9.57,2.57-1.74,6.48a1.14,1.14,0,0,1-.62.75l-4.77,2.28L277,406.46a1.14,1.14,0,0,1-.52.68,1.05,1.05,0,0,1-.83.12,1.14,1.14,0,0,1-.68-.52,1.1,1.1,0,0,1-.12-.83l1.43-5.33a1.2,1.2,0,0,1,.63-.82l4.77-2.25,1.06-3.93-6.39-1.71a1.07,1.07,0,0,1-1.29.62,1.06,1.06,0,0,1-.77-1.34Z" transform="translate(-54.5 -143.5)"/><path class="cls-8" d="M302,412l1.38-5.15a2.1,2.1,0,0,1,1-1.32,2.13,2.13,0,0,1,1.67-.22l1.67-6.22a1,1,0,0,1,.5-.66,1,1,0,0,1,.84-.11l4.29,1.15a1.11,1.11,0,0,1,.78,1.34l-1.67,6.21a2.17,2.17,0,0,1,1.32,1,2.09,2.09,0,0,1,.23,1.66l-1.39,5.18a2.21,2.21,0,0,1-2.68,1.54l-6.4-1.72a2.06,2.06,0,0,1-1.35-1.06A2.17,2.17,0,0,1,302,412Zm7.58-11.29-1.39,5.16,2.19.59,1.38-5.16Zm-4.06,6.71-1.39,5.17,6.41,1.72,1.38-5.17Z" transform="translate(-54.5 -143.5)"/><path class="cls-8" d="M326.67,420.89l-1.06-.28a1.14,1.14,0,0,1-.66-.5,1.08,1.08,0,0,1-.11-.84,1,1,0,0,1,.5-.66,1,1,0,0,1,.84-.11l1.87-7-7.44-2A1.06,1.06,0,0,1,320,409a1.1,1.1,0,0,1-.12-.83l1.47-5.47a1,1,0,0,1,.52-.66,1.08,1.08,0,0,1,.82-.12l8.49,2.28a1.06,1.06,0,0,1,.66.51,1.1,1.1,0,0,1,.12.83L328,420.12a1.12,1.12,0,0,1-.52.67A1.07,1.07,0,0,1,326.67,420.89Zm2-11.49.89-3.32-6.41-1.72-.89,3.32Z" transform="translate(-54.5 -143.5)"/><path class="cls-8" d="M334.18,420.67l3.25.87,3.33-12.45-3.19-.86a1.07,1.07,0,0,1-.77-1.34,1,1,0,0,1,.5-.66,1.07,1.07,0,0,1,.84-.11l5.3,1.42-3.9,14.56,2.11.57,1.18-4.4a1.06,1.06,0,0,1,.5-.66,1.05,1.05,0,0,1,.83-.11,1,1,0,0,1,.66.51,1,1,0,0,1,.12.83l-1.46,5.45a1.09,1.09,0,0,1-.52.67,1,1,0,0,1-.82.1l-8.52-2.28a1.06,1.06,0,0,1-.67-.52,1.12,1.12,0,0,1-.1-.84,1.06,1.06,0,0,1,.5-.65A1,1,0,0,1,334.18,420.67Z" transform="translate(-54.5 -143.5)"/><path class="cls-8" d="M348.69,424.64,352.07,412a2.14,2.14,0,0,1,2.58-1.49l6.58,1.77a2,2,0,0,1,1.25,1,2,2,0,0,1,.22,1.59l-3.38,12.62a2.11,2.11,0,0,1-1,1.29,2.07,2.07,0,0,1-1.6.2l-6.55-1.75a2.07,2.07,0,0,1-1.29-1A2,2,0,0,1,348.69,424.64Zm8.56,2.21,3.33-12.45-6.43-1.72-3.33,12.45Z" transform="translate(-54.5 -143.5)"/><path class="cls-8" d="M380.84,433.17l3.24.87,3.34-12.45-3.19-.86a1.05,1.05,0,0,1-.68-.5,1.14,1.14,0,0,1-.1-.83,1,1,0,0,1,.51-.66,1.05,1.05,0,0,1,.83-.12l5.31,1.43-3.91,14.56,2.11.56,1.18-4.4a1.14,1.14,0,0,1,.5-.66,1.08,1.08,0,0,1,.84-.11,1.1,1.1,0,0,1,.77,1.34l-1.46,5.45a1.08,1.08,0,0,1-.51.67,1,1,0,0,1-.83.1l-8.51-2.28a1.05,1.05,0,0,1-.67-.51,1.11,1.11,0,0,1-.1-.85,1,1,0,0,1,.5-.65A1.09,1.09,0,0,1,380.84,433.17Z" transform="translate(-54.5 -143.5)"/><path class="cls-8" d="M396.39,437.34l3.25.87L403,425.76l-3.19-.86a1.07,1.07,0,0,1-.77-1.34,1,1,0,0,1,.5-.66,1.07,1.07,0,0,1,.84-.11l5.3,1.42-3.9,14.56,2.11.57,1.17-4.4a1.11,1.11,0,0,1,.51-.66,1.05,1.05,0,0,1,.83-.11,1,1,0,0,1,.66.51,1,1,0,0,1,.11.83L405.68,441a1,1,0,0,1-.51.67,1.07,1.07,0,0,1-.82.1l-8.52-2.28a1.06,1.06,0,0,1-.67-.52,1.12,1.12,0,0,1-.1-.84,1,1,0,0,1,.5-.65A1,1,0,0,1,396.39,437.34Z" transform="translate(-54.5 -143.5)"/><path class="cls-8" d="M412,441.51l3.24.86,3.33-12.45-3.19-.85a1.07,1.07,0,0,1-.77-1.34,1,1,0,0,1,.5-.66,1.08,1.08,0,0,1,.84-.11l5.3,1.42-3.9,14.56,2.11.57,1.18-4.4a1.08,1.08,0,0,1,1.33-.77,1,1,0,0,1,.66.51,1,1,0,0,1,.12.82l-1.46,5.46a1.09,1.09,0,0,1-.52.67,1.06,1.06,0,0,1-.82.1l-8.52-2.28a1.09,1.09,0,0,1-.67-.52,1.19,1.19,0,0,1-.1-.85,1,1,0,0,1,.5-.64A1.07,1.07,0,0,1,412,441.51Z" transform="translate(-54.5 -143.5)"/><path class="cls-8" d="M435.53,450.09l-9.6-2.58,1.95-7.28a2.13,2.13,0,0,1,1-1.34,2.08,2.08,0,0,1,1.66-.23l6.41,1.71,1.38-5.13-7.54-2a1,1,0,0,1-.67-.51,1,1,0,0,1-.1-.83,1,1,0,0,1,.5-.66,1,1,0,0,1,.84-.11l7.53,2a2.08,2.08,0,0,1,1.34,1,2,2,0,0,1,.23,1.65L439.11,441a2.17,2.17,0,0,1-1,1.35,2.13,2.13,0,0,1-1.67.21L430,440.79,428.6,446l7.49,2a1,1,0,0,1,.66.51,1.09,1.09,0,0,1-.4,1.49A1.08,1.08,0,0,1,435.53,450.09Z" transform="translate(-54.5 -143.5)"/><path class="cls-8" d="M135.29,402.06l-5.39-1.44,1.1-4.09a1.25,1.25,0,0,1,.57-.76,1.19,1.19,0,0,1,.94-.12l3.59,1,.78-2.88-4.24-1.14a.58.58,0,0,1-.37-.28.64.64,0,0,1-.06-.47.62.62,0,0,1,.28-.37.56.56,0,0,1,.47-.06l4.23,1.13a1.23,1.23,0,0,1,.76.58,1.21,1.21,0,0,1,.13.93l-.78,2.88a1.18,1.18,0,0,1-.58.76,1.19,1.19,0,0,1-.94.12l-3.59-1-.78,2.9,4.2,1.13a.59.59,0,0,1,.37.29.53.53,0,0,1,.06.46.61.61,0,0,1-.29.38A.57.57,0,0,1,135.29,402.06Z" transform="translate(-54.5 -143.5)"/><path class="cls-8" d="M139.52,401.92l1.82.49,1.87-7-1.79-.48a.6.6,0,0,1-.38-.28.64.64,0,0,1-.06-.47.6.6,0,0,1,.29-.37.59.59,0,0,1,.47-.06l3,.8-2.19,8.17,1.19.32.66-2.47a.58.58,0,0,1,.28-.37.6.6,0,0,1,.47-.07.64.64,0,0,1,.37.29.56.56,0,0,1,.06.47l-.82,3.06a.62.62,0,0,1-.75.43l-4.78-1.28a.61.61,0,0,1-.38-.29.64.64,0,0,1,0-.47.56.56,0,0,1,.28-.37A.64.64,0,0,1,139.52,401.92Z" transform="translate(-54.5 -143.5)"/><path class="cls-8" d="M155.56,398.56l-7,6.88a.38.38,0,0,1-.41.09.7.7,0,0,1-.39-.27.49.49,0,0,1-.09-.46,1,1,0,0,1,.26-.43l7-6.88a.42.42,0,0,1,.43-.09.71.71,0,0,1,.38.27.49.49,0,0,1,.1.45A1.13,1.13,0,0,1,155.56,398.56Z" transform="translate(-54.5 -143.5)"/><path class="cls-8" d="M161.49,409.08l-5.39-1.44,1.09-4.09a1.23,1.23,0,0,1,.58-.76,1.17,1.17,0,0,1,.93-.12l3.6,1,.77-2.89-4.23-1.13a.58.58,0,0,1-.38-.28.64.64,0,0,1-.06-.47.62.62,0,0,1,.28-.37.58.58,0,0,1,.48-.06l4.23,1.13a1.18,1.18,0,0,1,.75.58,1.17,1.17,0,0,1,.13.93L163.5,404a1.21,1.21,0,0,1-.58.76,1.19,1.19,0,0,1-.94.12l-3.6-1-.78,2.91,4.2,1.13a.58.58,0,0,1,.37.28.6.6,0,0,1-.22.84A.58.58,0,0,1,161.49,409.08Z" transform="translate(-54.5 -143.5)"/><path class="cls-8" d="M167.33,409.38l2.74.73.78-2.9-3.59-1,1.42-5.27,4.17,1.12a.55.55,0,0,1,.37.28.6.6,0,0,1,.07.47.64.64,0,0,1-.29.37.54.54,0,0,1-.46.06l-3-.8-.78,2.9,2.39.64a1.17,1.17,0,0,1,.73.58,1.15,1.15,0,0,1,.13.92l-.78,2.91a1.18,1.18,0,0,1-.57.74,1.21,1.21,0,0,1-.93.13l-2.74-.74a1.9,1.9,0,0,1-.74-.39l-.79-.61a.56.56,0,0,1-.21-.66.57.57,0,0,1,.27-.37.55.55,0,0,1,.45-.07,1,1,0,0,1,.37.21l.7.54A.56.56,0,0,0,167.33,409.38Z" transform="translate(-54.5 -143.5)"/><path class="cls-8" d="M134.24,408.36l-2.35,8.77-1.59-.43-1.24-8.13-1.79,6.69a.6.6,0,0,1-.29.37.58.58,0,0,1-.46.06.6.6,0,0,1-.38-.28.64.64,0,0,1-.06-.47l2.36-8.78,1.57.42,1.25,8.12L133,408a.57.57,0,0,1,.29-.37.59.59,0,0,1,.48-.07.57.57,0,0,1,.37.29A.64.64,0,0,1,134.24,408.36Z" transform="translate(-54.5 -143.5)"/><path class="cls-8" d="M134.91,417.06l4.57-7.46a.58.58,0,0,1,.71-.29.53.53,0,0,1,.45.52l.16,8.86a.58.58,0,0,1,0,.19.63.63,0,0,1-.28.38.61.61,0,0,1-.91-.53l-.05-1.73-2.7-.73-1,1.58a.36.36,0,0,1-.23.17.58.58,0,0,1-.37,0,.56.56,0,0,1-.38-.29.6.6,0,0,1-.05-.47A.78.78,0,0,1,134.91,417.06Zm4.53-5-1.92,3.12,2,.53Z" transform="translate(-54.5 -143.5)"/><path class="cls-8" d="M147.29,415.16l.09-.3-.76-2.08-1.92,7.15a.57.57,0,0,1-.29.37.53.53,0,0,1-.46.06.61.61,0,0,1-.38-.29.57.57,0,0,1,0-.46l2.35-8.78,1.53.41.89,2.52,2.07-1.72,1.5.4-2.35,8.78a.55.55,0,0,1-.3.37.61.61,0,0,1-.46.06.57.57,0,0,1-.37-.29.58.58,0,0,1-.07-.46l1.91-7.13-1.65,1.37-.09.34a.59.59,0,0,1-.29.37.62.62,0,0,1-.46.06.59.59,0,0,1-.38-.29A.62.62,0,0,1,147.29,415.16Z" transform="translate(-54.5 -143.5)"/><path class="cls-8" d="M159.68,415.82l-4.19-1.13-.77,2.89,1.81.48a.61.61,0,0,1,.36.29.58.58,0,0,1,.07.46.64.64,0,0,1-.29.39.59.59,0,0,1-.47.06l-1.8-.48-.78,2.9,4.2,1.13a.57.57,0,0,1,.37.29.57.57,0,0,1,.07.46.59.59,0,0,1-.3.37.56.56,0,0,1-.47.06l-5.37-1.44,2.51-9.37,5.37,1.44a.57.57,0,0,1,.38.3.6.6,0,0,1,.07.47.56.56,0,0,1-.3.36A.6.6,0,0,1,159.68,415.82Z" transform="translate(-54.5 -143.5)"/><path class="cls-8" d="M173.43,418.22l3.08.82a1.76,1.76,0,0,1,1.14,2,.61.61,0,0,1-.3.38.54.54,0,0,1-.44.07.53.53,0,0,1-.38-.24,1.57,1.57,0,0,1-.08-.57.46.46,0,0,0-.35-.5l-2.93-.78c-.14,0-.22,0-.25.07a.38.38,0,0,0,0,.22l2.89,6.8a1.46,1.46,0,0,1,.08,1,1.33,1.33,0,0,1-.64.83,1.16,1.16,0,0,1-1,.17l-3.19-.85a1.68,1.68,0,0,1-1.16-2c.12-.44.38-.61.8-.5a.58.58,0,0,1,.36.29.59.59,0,0,1,.06.45.44.44,0,0,0,.34.56l3,.79c.12,0,.2,0,.23-.09a.36.36,0,0,0,0-.21l-2.89-6.8a1.49,1.49,0,0,1-.07-.95,1.35,1.35,0,0,1,.65-.85A1.32,1.32,0,0,1,173.43,418.22Z" transform="translate(-54.5 -143.5)"/><path class="cls-8" d="M178.77,427.79l1.88-7a.62.62,0,0,1,.75-.45.59.59,0,0,1,.37.29.58.58,0,0,1,.06.46l-1.87,7a.59.59,0,0,0,.44.73l2.42.65a.53.53,0,0,0,.46-.06.55.55,0,0,0,.29-.36l1.87-7a.65.65,0,0,1,.29-.38.56.56,0,0,1,.47-.06.61.61,0,0,1,.37.28.66.66,0,0,1,.06.48l-1.87,7a1.78,1.78,0,0,1-.87,1.12,1.75,1.75,0,0,1-1.39.19l-2.43-.65a1.78,1.78,0,0,1-1.11-.86A1.74,1.74,0,0,1,178.77,427.79Z" transform="translate(-54.5 -143.5)"/><path class="cls-8" d="M187.21,431.32l2.36-8.78,4.19,1.12a1.74,1.74,0,0,1,1.1.87,1.77,1.77,0,0,1,.19,1.4l-.18.68a1.81,1.81,0,0,1-.86,1.13,1.79,1.79,0,0,1-1.39.18l-.76-.2,1.31,4.81a.79.79,0,0,1,0,.4.64.64,0,0,1-.3.37.62.62,0,0,1-.46.05.59.59,0,0,1-.45-.46l-1.5-5.54-.86-.23-1.21,4.52a.59.59,0,0,1-.29.38.64.64,0,0,1-.47.05.6.6,0,0,1-.38-.28A.64.64,0,0,1,187.21,431.32Zm2.72-5.39,3,.81a.61.61,0,0,0,.46-.06.59.59,0,0,0,.29-.38l.19-.69a.57.57,0,0,0-.07-.46.55.55,0,0,0-.37-.29l-3-.8Z" transform="translate(-54.5 -143.5)"/><path class="cls-8" d="M204.09,427.08l-2.35,8.77-1.59-.43-1.24-8.13L197.12,434a.61.61,0,0,1-.75.44.59.59,0,0,1-.38-.29.61.61,0,0,1-.06-.46l2.35-8.78,1.58.42,1.25,8.12,1.78-6.66a.61.61,0,0,1,.29-.38.58.58,0,0,1,.48-.06.55.55,0,0,1,.37.28A.66.66,0,0,1,204.09,427.08Z" transform="translate(-54.5 -143.5)"/><path class="cls-8" d="M204.76,435.77l4.57-7.46A.59.59,0,0,1,210,428a.52.52,0,0,1,.45.52l.16,8.86a.9.9,0,0,1,0,.18.6.6,0,0,1-.72.45.57.57,0,0,1-.47-.59l-.05-1.74-2.7-.72-1,1.58a.36.36,0,0,1-.23.17.66.66,0,0,1-.37,0,.59.59,0,0,1-.38-.29.62.62,0,0,1-.05-.48A.64.64,0,0,1,204.76,435.77Zm4.53-5-1.92,3.12,2,.53Z" transform="translate(-54.5 -143.5)"/><path class="cls-8" d="M217.14,433.88l.09-.31-.76-2.08-1.92,7.15a.59.59,0,0,1-.29.38.62.62,0,0,1-.84-.23.57.57,0,0,1,0-.46l2.35-8.78,1.53.41.89,2.51,2.07-1.72,1.5.4-2.35,8.78a.61.61,0,0,1-.76.43.53.53,0,0,1-.37-.28.6.6,0,0,1-.07-.47l1.91-7.12-1.65,1.37-.09.33a.57.57,0,0,1-.29.37.58.58,0,0,1-.46.07.66.66,0,0,1-.38-.29A.62.62,0,0,1,217.14,433.88Z" transform="translate(-54.5 -143.5)"/><path class="cls-8" d="M229.53,434.53l-4.19-1.12-.77,2.89,1.8.48a.57.57,0,0,1,.37.29.57.57,0,0,1,.07.46.63.63,0,0,1-.29.38.6.6,0,0,1-.47.07l-1.8-.49-.78,2.91,4.2,1.13a.55.55,0,0,1,.37.28.6.6,0,0,1,.07.47.61.61,0,0,1-.3.37.64.64,0,0,1-.47.06L222,441.27l2.51-9.38,5.37,1.44a.63.63,0,0,1,.38.3.6.6,0,0,1,.07.47.61.61,0,0,1-.3.37A.56.56,0,0,1,229.53,434.53Z" transform="translate(-54.5 -143.5)"/><path class="cls-8" d="M170.68,236.24a4.28,4.28,0,0,1,2.45,1.7,3,3,0,0,1,.34,2.51,3.46,3.46,0,0,1-.94,1.62,3.42,3.42,0,0,1-1.71.81,5.53,5.53,0,0,1-2.38-.17,7.25,7.25,0,0,1-2.24-1,4.91,4.91,0,0,1-1.46-1.54l.81-.77a4.56,4.56,0,0,0,1.26,1.36,5.66,5.66,0,0,0,1.92.9,3.56,3.56,0,0,0,2.32,0,2.12,2.12,0,0,0,1.21-1.49,2.06,2.06,0,0,0-.31-1.86,3.87,3.87,0,0,0-2.15-1.22l-.81-.22.23-.86,4.21-3.1-5.82-1.56.28-1,7.31,2-.22.83Z" transform="translate(-54.5 -143.5)"/><path class="cls-8" d="M179.32,240.92l-2.51,1.32-.65,2.44-1.16-.31,3.24-12.06,1.15.31-2.19,8.17,6.35-3.3,1.43.39-4.59,2.51,2.64,6.13-1.41-.38Z" transform="translate(-54.5 -143.5)"/><path class="cls-8" d="M189.9,239.13a3.71,3.71,0,0,1,2.34,1.53,3.32,3.32,0,0,1,.24,2.71l-1.42,5.3-1.11-.3.36-1.33a2.76,2.76,0,0,1-1.43.73,4.13,4.13,0,0,1-1.89-.11,3.59,3.59,0,0,1-2.09-1.29,2.43,2.43,0,0,1,.89-3.57,4,4,0,0,1,2.69,0l2.72.73.14-.52a2.27,2.27,0,0,0-.17-1.84,2.67,2.67,0,0,0-1.65-1.07,4.78,4.78,0,0,0-1.64-.14,4,4,0,0,0-1.48.39l-.28-1a4.62,4.62,0,0,1,1.78-.43A6.23,6.23,0,0,1,189.9,239.13Zm-2.49,7.67a3.12,3.12,0,0,0,1.79,0,2.83,2.83,0,0,0,1.39-1l.37-1.4-2.68-.72c-1.46-.39-2.33-.07-2.6.94a1.48,1.48,0,0,0,.25,1.34A2.7,2.7,0,0,0,187.41,246.8Z" transform="translate(-54.5 -143.5)"/><path class="cls-8" d="M194.28,249.62a.91.91,0,0,1-.55-.43.93.93,0,0,1-.07-.7.86.86,0,0,1,.41-.55.9.9,0,0,1,1.23.33.9.9,0,0,1-.33,1.25A.88.88,0,0,1,194.28,249.62Z" transform="translate(-54.5 -143.5)"/><path class="cls-8" d="M210.6,244.67a3.5,3.5,0,0,1,2.27,1.6,3.86,3.86,0,0,1,.2,3l-1.33,5-1.16-.31,1.3-4.84a3,3,0,0,0-.11-2.21,2.36,2.36,0,0,0-1.61-1.18,2.79,2.79,0,0,0-2.32.27,3.29,3.29,0,0,0-1.37,2.05l-1.2,4.48-1.15-.3,1.29-4.85a3,3,0,0,0-.1-2.2,2.41,2.41,0,0,0-1.63-1.19,2.87,2.87,0,0,0-2.32.27,3.25,3.25,0,0,0-1.37,2.05l-1.2,4.49-1.16-.31,2.29-8.55,1.11.3-.42,1.56a3.2,3.2,0,0,1,1.59-.87,4.19,4.19,0,0,1,2,.08,3.73,3.73,0,0,1,1.73,1,2.89,2.89,0,0,1,.83,1.67,3.31,3.31,0,0,1,1.7-.95A4.29,4.29,0,0,1,210.6,244.67Z" transform="translate(-54.5 -143.5)"/><path class="cls-8" d="M217.16,246.5l1.15.31L216,255.36l-1.15-.31Zm1.08-1.71a.88.88,0,0,1-.62-1.06.84.84,0,0,1,.39-.5.83.83,0,0,1,.67-.08.85.85,0,0,1,.54.4.76.76,0,0,1,.09.62.82.82,0,0,1-.4.54A.91.91,0,0,1,218.24,244.79Z" transform="translate(-54.5 -143.5)"/><path class="cls-8" d="M225.94,248.78a4.57,4.57,0,0,1,2,1.14,4,4,0,0,1,1.12,1.94,4.78,4.78,0,0,1-.05,2.4,4.71,4.71,0,0,1-1.17,2.13,4,4,0,0,1-1.94,1.13,4.57,4.57,0,0,1-2.32,0,4.42,4.42,0,0,1-1.77-.93,3.74,3.74,0,0,1-1-1.63l-1.28,4.76-1.16-.31,3.14-11.7,1.1.29-.45,1.69a3.68,3.68,0,0,1,1.72-.93A4.21,4.21,0,0,1,225.94,248.78Zm-2.14,7.65a3.43,3.43,0,0,0,1.74,0,3,3,0,0,0,1.45-.88,3.65,3.65,0,0,0,.89-1.63,3.46,3.46,0,0,0,0-1.83,3,3,0,0,0-.82-1.49,3.21,3.21,0,0,0-1.51-.86,3.36,3.36,0,0,0-1.75,0,3.25,3.25,0,0,0-1.46.88,4,4,0,0,0-.93,3.46,3.16,3.16,0,0,0,.82,1.49A3.39,3.39,0,0,0,223.8,256.43Z" transform="translate(-54.5 -143.5)"/><path class="cls-8" d="M234.88,259.85a2.28,2.28,0,0,1-.93.24,3.63,3.63,0,0,1-1-.12,2.59,2.59,0,0,1-1.68-1.15,2.56,2.56,0,0,1-.16-2l1.39-5.16-1.53-.41.26-1,1.53.41.5-1.87,1.15.31-.5,1.87,2.6.7-.26,1-2.6-.69-1.37,5.1a1.8,1.8,0,0,0,.06,1.27,1.53,1.53,0,0,0,1,.68,2,2,0,0,0,.72.07,1.83,1.83,0,0,0,.67-.16Z" transform="translate(-54.5 -143.5)"/><path class="cls-8" d="M237.1,261.09a.85.85,0,0,1-.55-.43.94.94,0,0,1-.08-.7.92.92,0,0,1,.41-.55.88.88,0,0,1,.69-.09.86.86,0,0,1,.55.42.83.83,0,0,1,.09.69.89.89,0,0,1-.43.57A.91.91,0,0,1,237.1,261.09Z" transform="translate(-54.5 -143.5)"/><path class="cls-8" d="M243.39,255.32a2.91,2.91,0,0,1,1.55-1,4.31,4.31,0,0,1,2.12.09l-.3,1.12-.27-.09a2.83,2.83,0,0,0-2.34.27,3.39,3.39,0,0,0-1.38,2.12l-1.17,4.35-1.15-.31,2.29-8.55,1.1.3Z" transform="translate(-54.5 -143.5)"/><path class="cls-8" d="M257,257.17l-2.29,8.54-1.1-.29.41-1.56a3.39,3.39,0,0,1-1.58.88,3.86,3.86,0,0,1-1.93-.07,3.39,3.39,0,0,1-2.62-4.63l1.33-5,1.15.31-1.3,4.84a3,3,0,0,0,.12,2.23,2.64,2.64,0,0,0,1.72,1.21,2.91,2.91,0,0,0,2.34-.25,3.28,3.28,0,0,0,1.39-2.08l1.21-4.48Z" transform="translate(-54.5 -143.5)"/><path class="cls-9" d="M169.72,300.4,195,307.18m-30.57,13,25.28,6.77m21.66,5.81,25.28,6.77m-20-26.52,25.28,6.77m-73.53,21.67,54.16,14.51A9.34,9.34,0,0,0,234,349.32l10.55-39.39A9.33,9.33,0,0,0,238,298.49L183.8,284a9.36,9.36,0,0,0-11.45,6.61L161.8,330A9.34,9.34,0,0,0,168.41,341.42Zm25.39-.89,7.22,1.93a7.48,7.48,0,0,0,9.16-5.28l7.67-28.64a7.47,7.47,0,0,0-5.28-9.16l-7.22-1.94a7.48,7.48,0,0,0-9.16,5.29l-7.68,28.64A7.49,7.49,0,0,0,193.8,340.53Z" transform="translate(-54.5 -143.5)"/></svg>