<svg id="Слой_1" data-name="Слой 1" xmlns="http://www.w3.org/2000/svg" viewBox="0 0 348.64 360.17"><defs><style>.cls-1{fill:#0460a3;}</style></defs><path class="cls-1" d="M179,268.8c-44.83,19.82-89.74-2.28-108.19-35.49-19.1-34.38-12.06-77.73,17.12-103.72,30-26.71,73.75-28.51,106.17-5.1,28.08,20.27,49.41,69.26,19.4,115.62H326.83c13.66,0,21.21,7.66,21.26,21.42,0,6.88.59,13.83-4.27,19.68-.36.44,0,1.84.48,2.55,5.49,9,5.44,23.6,0,32.86a3.65,3.65,0,0,0,.08,3.16c5.68,9.18,5.06,19.09,2,28.56-2.6,8.17-9.58,11.81-18.18,11.82H240.44c-13.38,0-26.75,0-40.13,0-12.22,0-20.34-8-20.2-20.16.07-5.32-.23-11.07,1.67-15.81,1.8-4.47,1.58-7.38.06-11.91-3.15-9.41-3.74-19.34,1.95-28.52a4.08,4.08,0,0,0,.09-3.17C182.4,276.7,180.7,272.89,179,268.8Zm-105.13-61c2.7-4.3,5-8,7.3-11.64C92.54,178.3,108,165.35,127.93,158c14.44-5.31,28.49-3.81,41.77,4,5.38,3.18,5.79,7,1.36,11.5-4.93,5-10.2,9.65-14.71,15a21.33,21.33,0,0,0-4.65,9.86c-1,6.19,1.83,11.26,7.13,14.6a14.85,14.85,0,0,0,16.34.18c11.5-6.79,22.94-13.7,34.4-20.56,6.85-4.1,6.84-4.11,5.6-11.88-5.24-32.78-32.18-57.58-65.72-60.5-31.93-2.77-62.74,17.39-73.41,48.2A70.07,70.07,0,0,0,73.85,207.8Zm141.21-4.35c-1.74,1-2.82,1.53-3.87,2.16-9.64,5.77-19.15,11.8-29,17.23a35.27,35.27,0,0,1-13,4.32,27,27,0,0,1-27.12-15.63,27.44,27.44,0,0,1,5-30.95c3.4-3.6,7.19-6.83,11.33-10.72-7.62-3-14.45-3.75-21.19-2-19.38,5.08-34,16.84-45,33.31-4.1,6.12-7.75,12.54-11.85,18.67-1.41,2.11-1.2,3.69-.13,5.75,18.31,35.28,63.26,49,98,29.78a7.82,7.82,0,0,0,3.16-3.36,19.71,19.71,0,0,1,13.87-11.53,7,7,0,0,0,3.51-1.75A70.46,70.46,0,0,0,215.06,203.45Zm49.07,72.68q31.67,0,63.34,0c6.1,0,8.56-2.53,8.61-8.7,0-1.5,0-3,0-4.5,0-9.05-1.72-10.8-10.63-10.8H208.9c-3.13,0-6.25-.07-9.37,0-4.71.13-7.33,2.81-7.47,7.55-.07,2.5,0,5,0,7.5,0,6.59,2.4,8.93,9.12,8.93Zm-.08,36h27.74c12.12,0,24.23,0,36.35,0,5.19,0,7.81-2.69,7.93-7.85.05-2.25,0-4.5,0-6.75,0-7.14-2.26-9.38-9.42-9.39H221.34c-7.24,0-14.49-.06-21.73,0-4.74.06-7.4,2.76-7.55,7.47-.08,2.5,0,5,0,7.5,0,6.63,2.38,9,9,9Zm0,12H234.8c-11.62,0-23.24,0-34.86,0-5.18,0-7.78,2.69-7.88,7.89-.05,2.24,0,4.49,0,6.74,0,7.13,2.25,9.36,9.45,9.36H315.81c4.25,0,8.5.07,12.74,0,4.72-.1,7.36-2.79,7.51-7.51.08-2.5,0-5,0-7.5,0-6.61-2.4-9-9.08-9Z"/><path class="cls-1" d="M288.07,227.93H276.16V78.18H216.28V66.12h59.45a24.92,24.92,0,0,0,.32-2.72c0-9.26.1-18.51,0-27.76A23.48,23.48,0,0,0,252.43,12c-8-.09-16,0-24.38,0,0,5.47,0,10.67,0,15.88C228,47.77,215.88,60,196.13,60H91.87C72.32,60,60,47.74,60,28.21c0-5.24,0-10.47,0-15.42-10.29,0-20.45-.95-30.35.27S12.6,24.13,12.06,34.2C12,35.45,12,36.7,12,38V306H77.72v12.06H12.49c-3,17.21,7.82,30.09,24.82,30.1q62.82,0,125.64,0h4.79v12h-3.88q-63.2,0-126.39,0C15.25,360.15,0,344.93,0,322.72Q0,180.18,0,37.63C0,15.16,15.17,0,37.66,0H250.3C273,0,288.06,15.09,288.06,37.89q0,92.85,0,185.69ZM216,12.26H72c0,5.72,0,11.2,0,16.68,0,12,7.17,19.07,19.16,19.08q27.93,0,55.84,0c17.12,0,34.23.06,51.34,0,9.47,0,17.07-6.9,17.57-16C216.28,25.5,216,19,216,12.26Z"/><path class="cls-1" d="M244.92,230.11,234.12,226c11.08-33.41,7.06-64.57-14.31-92.61C203.5,112,181.42,99.88,154.67,96.86A95.6,95.6,0,0,0,48.26,192c-.07,30.68,12.27,56.16,36.33,75.26s51.57,24.67,82,18.36l2.72,10.86c-27.37,9-77.6,3.37-109.78-37.21-33.1-41.73-31-101.07,4.77-140,36.31-39.48,95.07-46.78,139.59-17C249.55,132.77,261.49,188.23,244.92,230.11Z"/><path class="cls-1" d="M102.17,227.82v-11.5h11.67v11.5Z"/><path class="cls-1" d="M120.21,245.9V234.38h11.58V245.9Z"/><path class="cls-1" d="M90.28,24.19h11.55V35.73H90.28Z"/><path class="cls-1" d="M125.87,24.21V35.76H114.26V24.21Z"/></svg>