<?xml version="1.0" encoding="utf-8"?>
<!-- Generator: Adobe Illustrator 26.0.0, SVG Export Plug-In . SVG Version: 6.00 Build 0)  -->
<svg version="1.1" id="Слой_1" xmlns="http://www.w3.org/2000/svg" xmlns:xlink="http://www.w3.org/1999/xlink" x="0px" y="0px"
	 viewBox="0 0 283.5 337.4" style="enable-background:new 0 0 283.5 337.4;" xml:space="preserve">
<style type="text/css">
	.st0{fill:#FFFFFF;}
</style>
<path class="st0" d="M138.1,62.8c6.4-3.9,8.5-12.2,4.6-18.6c-3.9-6.4-12.2-8.5-18.6-4.6c-6.4,3.9-8.4,12.2-4.6,18.6
	c3.8,6.4,12.1,8.5,18.5,4.7C138.1,62.9,138.1,62.9,138.1,62.8z"/>
<path class="st0" d="M101,68.5c4.5-2.7,6-8.6,3.2-13.2s-8.6-6-13.2-3.2c-4.5,2.7-5.9,8.6-3.2,13.1C90.5,69.8,96.4,71.3,101,68.5
	C100.9,68.5,101,68.5,101,68.5z"/>
<path class="st0" d="M189.4,62.7c9.2-5.6,12.2-17.6,6.6-26.8c-5.6-9.2-17.6-12.2-26.8-6.6c-9.2,5.6-12.2,17.5-6.6,26.7
	c5.5,9.2,17.5,12.3,26.7,6.7C189.4,62.7,189.4,62.7,189.4,62.7z"/>
<path class="st0" d="M99.4,186.3l9.3-12.2c-35.4-14.8-66.1-31.7-71-50.8c-2.2-8.3,0.9-17.1,9.4-26.8c6.9-8,17-15,29.9-21l-5.9-13.6
	C57,68.4,44.8,76.6,35.9,86.8c-11.7,13.5-16,27-12.5,40.2C29.6,151.4,60.8,169.9,99.4,186.3z"/>
<path class="st0" d="M208.7,336.6L266,0L0,337h0.3c51.6-57.7,140.2-62.6,197.9-11C201.9,329.4,205.4,332.9,208.7,336.6L208.7,336.6z
	 M158,242.4c-18.5-7.5-27.4-28.5-19.9-47c7.5-18.5,28.5-27.4,47-19.9c18.4,7.5,27.3,28.4,19.9,46.9c-7.4,18.5-28.3,27.5-46.8,20.1
	C158.2,242.5,158.1,242.5,158,242.4z"/>
<path class="st0" d="M271.4,252.4c-7.8-9-18.6-16.2-30.9-21.9l-2.3,13.5c9.9,5,17.8,10.7,23.3,17.1c7.5,8.6,10.2,16.4,8.3,23.7
	c-3.5,13.5-21.6,25.8-44.8,36.9l-2.7,15.8c30.8-13.7,55-29.3,60.2-49.4C285.5,276.3,281.7,264.3,271.4,252.4z"/>
</svg>
