<?xml version="1.0" encoding="utf-8"?>
<!-- Generator: Adobe Illustrator 26.0.0, SVG Export Plug-In . SVG Version: 6.00 Build 0)  -->
<svg version="1.1" id="Слой_1" xmlns="http://www.w3.org/2000/svg" xmlns:xlink="http://www.w3.org/1999/xlink" x="0px" y="0px"
	 viewBox="0 0 283.5 85.1" style="enable-background:new 0 0 283.5 85.1;" xml:space="preserve">
<style type="text/css">
	.st0{fill:#FFFFFF;}
</style>
<polyline class="st0" points="69.2,25.2 89.7,25.2 90.4,45 90.6,45 99.1,25.2 119.5,25.2 112.2,61.3 99.8,61.3 105.6,33 105.3,33 
	92.4,61.3 80.9,61.3 79.8,33 79.4,33 73.7,61.3 61.9,61.3 69.2,25.2 "/>
<path class="st0" d="M131.9,62l1.1-5.8h-2.5c-9.5,0-13-5.4-13-10.7c0-7.9,6.4-17.2,19-17.2h2.2l1.1-5.4h13.8l-1.1,5.4h2.2
	c5.1,0,13.2,1.2,13.2,10.8c0,8.4-6,17.2-18.4,17.2h-2.7l-1.1,5.8H131.9 M137.6,36.5h-0.8c-3.7,0-6.1,3.9-6.1,7.3
	c0,2.1,1.3,4.2,3.8,4.2h0.8L137.6,36.5z M147.9,48h0.8c3.9,0,6-4.2,6-7.4c0-2.3-1.3-4.1-3.8-4.1h-0.8L147.9,48z"/>
<polyline class="st0" points="209.1,25.2 206.9,35.9 194.7,35.9 189.6,61.3 175.8,61.3 180.9,35.9 168.7,35.9 170.9,25.2 
	209.1,25.2 "/>
<polyline class="st0" points="226,25.2 221.8,45.9 222,45.9 235.3,25.2 251.4,25.2 244.1,61.3 230.3,61.3 234.4,41.1 234.2,41.1 
	221,61.3 204.8,61.3 212.1,25.2 226,25.2 "/>
<polyline class="st0" points="262.2,74.9 264.1,64.7 283.5,70.5 262.2,74.9 "/>
<path class="st0" d="M257.6,67H57.8c-3.7,0-5.3,4.1-6.8,8c-0.5,1.5-1.2,3-2,4.4c-1.2-1.2-2-6.8-2.4-9l-0.2-1.2
	c-1.2-7.6-2.3-15.6-3.3-23.4C38.5,12,36.4,0.1,30.1,0C22.2-0.2,19.4,13.9,11,55.4l-1.1,5.4C8.7,67,5.9,67,4.7,67H0.9L0,72.4h4.7
	c3.1,0,8.7-1.4,10.5-10.5l1.1-5.4c5.1-25.6,10-49.8,13.4-51c3,3.2,5.9,25,8,41.2c1,7.8,2.1,15.8,3.3,23.5l0.2,1.2
	c0.9,6.1,2.1,13.8,7.8,13.8c3.7,0,5.3-4.1,6.8-8c0.6-1.5,1.6-4,2.2-4.7h198.5L257.6,67"/>
</svg>
